<?xml version="1.0" encoding="UTF-8" standalone="no"?>
<!DOCTYPE svg PUBLIC "-//W3C//DTD SVG 1.1//EN"
 "http://www.w3.org/Graphics/SVG/1.1/DTD/svg11.dtd">
<!-- Generated by graphviz version 5.0.0 (20220707.1540)
 -->
<!-- Title: dependencies Pages: 1 -->
<svg width="628pt" height="247pt"
 viewBox="0.00 0.00 628.00 246.80" xmlns="http://www.w3.org/2000/svg" xmlns:xlink="http://www.w3.org/1999/xlink">
<g id="graph0" class="graph" transform="scale(1 1) rotate(0) translate(4 242.8)">
<title>dependencies</title>
<polygon fill="white" stroke="transparent" points="-4,4 -4,-242.8 624,-242.8 624,4 -4,4"/>
<text text-anchor="middle" x="310" y="-8.2" font-family="sans-serif" font-size="14.00">dependencies</text>
<g id="clust1" class="cluster">
<title>cluster_AppModule</title>
<polygon fill="none" stroke="black" stroke-dasharray="1,5" points="8,-32.8 8,-230.8 612,-230.8 612,-32.8 8,-32.8"/>
</g>
<g id="clust2" class="cluster">
<title>cluster_AppModule_declarations</title>
<polygon fill="none" stroke="black" points="168,-40.8 168,-92.8 604,-92.8 604,-40.8 168,-40.8"/>
</g>
<g id="clust6" class="cluster">
<title>cluster_AppModule_imports</title>
<polygon fill="none" stroke="black" points="16,-40.8 16,-92.8 160,-92.8 160,-40.8 16,-40.8"/>
</g>
<g id="clust8" class="cluster">
<title>cluster_AppModule_bootstrap</title>
<polygon fill="none" stroke="black" points="270,-170.8 270,-222.8 394,-222.8 394,-170.8 270,-170.8"/>
</g>
<!-- AppComponent -->
<g id="node1" class="node">
<title>AppComponent</title>
<polygon fill="#ffffb3" stroke="black" points="595.94,-84.8 490.06,-84.8 490.06,-48.8 595.94,-48.8 595.94,-84.8"/>
<text text-anchor="middle" x="543" y="-62.6" font-family="Times,serif" font-size="14.00">AppComponent</text>
</g>
<!-- AppModule -->
<g id="node4" class="node">
<title>AppModule</title>
<polygon fill="#8dd3c7" stroke="black" points="373.66,-149.8 370.66,-153.8 349.66,-153.8 346.66,-149.8 290.34,-149.8 290.34,-113.8 373.66,-113.8 373.66,-149.8"/>
<text text-anchor="middle" x="332" y="-127.6" font-family="Times,serif" font-size="14.00">AppModule</text>
</g>
<!-- AppComponent&#45;&gt;AppModule -->
<g id="edge1" class="edge">
<title>AppComponent&#45;&gt;AppModule</title>
<path fill="none" stroke="black" d="M543,-84.91C543,-104.14 543,-131.8 543,-131.8 543,-131.8 383.69,-131.8 383.69,-131.8"/>
<polygon fill="black" stroke="black" points="383.69,-128.3 373.69,-131.8 383.69,-135.3 383.69,-128.3"/>
</g>
<!-- NavbarComponent -->
<g id="node2" class="node">
<title>NavbarComponent</title>
<polygon fill="#ffffb3" stroke="black" points="472.03,-84.8 349.97,-84.8 349.97,-48.8 472.03,-48.8 472.03,-84.8"/>
<text text-anchor="middle" x="411" y="-62.6" font-family="Times,serif" font-size="14.00">NavbarComponent</text>
</g>
<!-- NavbarComponent&#45;&gt;AppModule -->
<g id="edge2" class="edge">
<title>NavbarComponent&#45;&gt;AppModule</title>
<path fill="none" stroke="black" d="M361.78,-84.91C361.78,-84.91 361.78,-103.79 361.78,-103.79"/>
<polygon fill="black" stroke="black" points="358.28,-103.79 361.78,-113.79 365.28,-103.79 358.28,-103.79"/>
</g>
<!-- PokemonListComponent -->
<g id="node3" class="node">
<title>PokemonListComponent</title>
<polygon fill="#ffffb3" stroke="black" points="332,-84.8 176,-84.8 176,-48.8 332,-48.8 332,-84.8"/>
<text text-anchor="middle" x="254" y="-62.6" font-family="Times,serif" font-size="14.00">PokemonListComponent</text>
</g>
<!-- PokemonListComponent&#45;&gt;AppModule -->
<g id="edge3" class="edge">
<title>PokemonListComponent&#45;&gt;AppModule</title>
<path fill="none" stroke="black" d="M311.08,-84.91C311.08,-84.91 311.08,-103.79 311.08,-103.79"/>
<polygon fill="black" stroke="black" points="307.58,-103.79 311.08,-113.79 314.58,-103.79 307.58,-103.79"/>
</g>
<!-- AppComponent  -->
<g id="node6" class="node">
<title>AppComponent </title>
<polygon fill="#80b1d3" stroke="black" points="386.44,-214.8 277.56,-214.8 277.56,-178.8 386.44,-178.8 386.44,-214.8"/>
<text text-anchor="middle" x="332" y="-192.6" font-family="Times,serif" font-size="14.00">AppComponent </text>
</g>
<!-- AppModule&#45;&gt;AppComponent  -->
<g id="edge5" class="edge">
<title>AppModule&#45;&gt;AppComponent </title>
<path fill="none" stroke="black" stroke-dasharray="1,5" d="M332,-149.91C332,-149.91 332,-168.79 332,-168.79"/>
<polygon fill="black" stroke="black" points="328.5,-168.79 332,-178.79 335.5,-168.79 328.5,-168.79"/>
</g>
<!-- AppRoutingModule -->
<g id="node5" class="node">
<title>AppRoutingModule</title>
<polygon fill="#8dd3c7" stroke="black" points="152.28,-84.8 149.28,-88.8 128.28,-88.8 125.28,-84.8 23.72,-84.8 23.72,-48.8 152.28,-48.8 152.28,-84.8"/>
<text text-anchor="middle" x="88" y="-62.6" font-family="Times,serif" font-size="14.00">AppRoutingModule</text>
</g>
<!-- AppRoutingModule&#45;&gt;AppModule -->
<g id="edge4" class="edge">
<title>AppRoutingModule&#45;&gt;AppModule</title>
<path fill="none" stroke="black" d="M88,-84.91C88,-104.14 88,-131.8 88,-131.8 88,-131.8 280.33,-131.8 280.33,-131.8"/>
<polygon fill="black" stroke="black" points="280.33,-135.3 290.33,-131.8 280.33,-128.3 280.33,-135.3"/>
</g>
</g>
</svg>
